# xmcd
#
# Track frame offsets: 
#        150
#        9390
#        23316
#        41125
#        57037
#        70610
#        90398
#        95777
#        112871
#        128543
#        145753
#        161281
#        177280
#        199193
#        221563
#        247253
#        262189
#        283729
#
# Disc length: 4100 seconds
#
# Revision: 2
# Processed by: cddbd v1.5.2PL0 Copyright (c) Steve Scherf et al.
# Submitted via: ExactAudioCopyFreeDBPlugin 1.0
#
DISCID=f4100212
DTITLE=Various Artist - Elac FS 609CE Eastern Stereo LTD
DYEAR=2010
DGENRE=Easy Listening
TTITLE0=Java
TTITLE1=Limbo Rock
TTITLE2=La La Means I love you
TTITLE3=You Needed Me
TTITLE4=The First Time Ever I Saw Your Face
TTITLE5=This Masquerade
TTITLE6=Happy Birthday
TTITLE7=Alice Lau - 粉紅色的一生 The Pink Life (Melody:La Vie En Rose)
TTITLE8=Alice Lau - 檳城豔 (Malaysia Romance)
TTITLE9=Ela Lo - Tennessee Walitz
TTITLE10=Ela Lo - Stand By Me
TTITLE11=Ela Lo - Perhaps Perhaps Perhaps
TTITLE12=Mebis Li - 永遠的微笑 (Ever Lasting Smile)
TTITLE13=Mebis Li - 初次嘗到寂寞 (The First Lonesome)
TTITLE14=Hong Kong Childern Choir - Getting To Know You - Putting On T
TTITLE14=he Ritz 
TTITLE15=Jheena Lodwick - Singing In The Rain
TTITLE16=Jheena Lodwick - You Raise Me Up
TTITLE17=Jheena Lodwick - I Will Always Love You
EXTD=
EXTT0=
EXTT1=
EXTT2=
EXTT3=
EXTT4=
EXTT5=
EXTT6=
EXTT7=
EXTT8=
EXTT9=
EXTT10=
EXTT11=
EXTT12=
EXTT13=
EXTT14=
EXTT15=
EXTT16=
EXTT17=
PLAYORDER=
